<svg width="148" height="64" viewBox="0 0 148 64" fill="none" xmlns="http://www.w3.org/2000/svg">
<path d="M54.8556 40.0836C53.181 44.8064 50.0843 48.8944 45.9916 51.7856C41.8988 54.6767 37.011 56.2291 32 56.2291C26.9891 56.2291 22.1012 54.6767 18.0084 51.7856C13.9157 48.8944 10.8191 44.8064 9.1444 40.0836C7.28536 34.8548 7.28536 29.1452 9.1444 23.9165L54.8556 40.0836ZM54.8556 40.0836C55.784 37.4898 56.2558 34.7548 56.25 32M54.8556 40.0836L56.25 32M56.25 32C56.2558 29.2452 55.784 26.5102 54.8556 23.9165C53.181 19.1936 50.0843 15.1056 45.9916 12.2144C41.8988 9.32326 37.011 7.77095 32 7.77095C26.9891 7.77095 22.1012 9.32326 18.0084 12.2144C13.9158 15.1056 10.8192 19.1935 9.14447 23.9163L56.25 32Z" fill="white" stroke="black" stroke-width="0.5"/>
<path d="M54.62 40.25H54.7961L54.8554 40.0843C55.7839 37.4903 56.2558 34.7551 56.25 32C56.2558 29.2449 55.7839 26.5097 54.8554 23.9157L54.7961 23.75H54.62H9.38002H9.20358L9.14447 23.9162C7.28534 29.1451 7.28534 34.8549 9.14447 40.0838L9.20358 40.25H9.38002H54.62Z" fill="#0036A7" stroke="black" stroke-width="0.5"/>
<path d="M54.8556 40.0836L54.9739 39.75H54.62H9.38H9.0261L9.14438 40.0836C10.8191 44.8064 13.9157 48.8944 18.0084 51.7856C22.1012 54.6767 26.9891 56.2291 32 56.2291C37.0109 56.2291 41.8988 54.6767 45.9916 51.7856C50.0843 48.8944 53.1809 44.8064 54.8556 40.0836Z" fill="#D62718" stroke="black" stroke-width="0.5"/>
<path d="M116.25 8V7.75027L116 7.75C110.682 7.74432 105.51 9.49536 101.289 12.7311C100.358 13.4345 99.4831 14.2083 98.671 15.0455C95.0742 18.7209 92.7389 23.4446 92.0026 28.5342L91.9612 28.82H92.25H116H116.25V28.57V8Z" fill="#142359" stroke="black" stroke-width="0.5"/>
<path d="M132.79 15.11H133.401L132.965 14.6816C128.438 10.2354 122.345 7.746 116 7.75L115.75 7.75016V8V14.86V15.11H116H132.79Z" fill="#BF2121" stroke="black" stroke-width="0.5"/>
<path d="M137.68 21.96H138.075L137.906 21.6029C136.682 19.0211 135.009 16.6774 132.965 14.6811L132.892 14.61H132.79H116H115.75V14.86V21.71V21.96H116H137.68Z" fill="white" stroke="black" stroke-width="0.5"/>
<path d="M139.75 28.82H140.038L139.998 28.5352C139.66 26.1306 138.954 23.7922 137.905 21.602L137.837 21.46H137.68H116H115.75V21.71V28.57V28.82H116H139.75Z" fill="#BF2121" stroke="black" stroke-width="0.5"/>
<path d="M140.25 32C140.253 30.8396 140.169 29.6807 139.997 28.5331L139.965 28.32H139.75H92.2501H92.034L92.0027 28.5337C91.6658 30.8323 91.6658 33.1677 92.0027 35.4663L92.034 35.68H92.2501H139.75H139.965L139.997 35.4669C140.169 34.3193 140.253 33.1603 140.25 32ZM140.25 32C140.25 32.0002 140.25 32.0004 140.25 32.0007L140 32L140.25 31.9993C140.25 31.9995 140.25 31.9998 140.25 32Z" fill="white" stroke="black" stroke-width="0.5"/>
<path d="M139.998 35.4648L140.038 35.18H139.75H92.25H91.9624L92.0024 35.4648C92.3402 37.8694 93.0458 40.2078 94.0945 42.398L94.1625 42.54H94.32H137.68H137.837L137.905 42.398C138.954 40.2078 139.66 37.8694 139.998 35.4648Z" fill="#BF2121" stroke="black" stroke-width="0.5"/>
<path d="M132.965 49.3186L133.403 48.89H132.79H99.2101H98.5974L99.0352 49.3186C103.567 53.7558 109.657 56.2408 116 56.2408C122.343 56.2408 128.433 53.7558 132.965 49.3186Z" fill="#BF2121" stroke="black" stroke-width="0.5"/>
<path d="M137.906 42.3971L138.075 42.04H137.68H94.3201H93.9249L94.0942 42.3971C95.3181 44.9789 96.9912 47.3226 99.0354 49.3189L99.1082 49.39H99.2101H132.79H132.892L132.965 49.3189C135.009 47.3226 136.682 44.9789 137.906 42.3971Z" fill="white" stroke="black" stroke-width="0.5"/>
<path d="M108.948 10.7123L108.708 9.98063L108.472 10.7133L107.838 12.68H105.76H104.986L105.614 13.1328L107.296 14.3459L106.652 16.3123L106.413 17.045L107.037 16.5924L108.71 15.3785L110.394 16.5928L111.016 17.0417L110.778 16.3123L110.134 14.3454L111.807 13.1324L112.431 12.68H111.66H109.591L108.948 10.7123Z" fill="white" stroke="black" stroke-width="0.5"/>
<path d="M108.948 19.3123L108.708 18.5806L108.472 19.3133L107.838 21.28H105.76H104.991L105.613 21.7322L107.296 22.9552L106.652 24.9223L106.413 25.655L107.037 25.2024L108.71 23.9885L110.394 25.2028L111.016 25.6518L110.778 24.9223L110.134 22.9548L111.808 21.7318L112.426 21.28H111.66H109.591L108.948 19.3123Z" fill="white" stroke="black" stroke-width="0.5"/>
<path d="M100.528 19.3133L100.292 18.5806L100.052 19.3123L99.4088 21.28H97.3401H96.5743L97.1926 21.7318L98.8661 22.9548L98.2225 24.9223L97.9839 25.6518L98.6063 25.2028L100.29 23.9885L101.963 25.2024L102.587 25.655L102.348 24.9223L101.704 22.9552L103.387 21.7322L104.009 21.28H103.24H101.162L100.528 19.3133Z" fill="white" stroke="black" stroke-width="0.5"/>
<path d="M101.963 16.5924L102.587 17.045L102.348 16.3123L101.704 14.3459L103.386 13.1328L104.014 12.68H103.24H101.44H101.356L101.289 12.7306C100.359 13.4343 99.4831 14.2083 98.6706 15.0459L98.6302 15.0876L98.6123 15.1428L98.2323 16.3128L97.995 17.0434L98.6169 16.5924L100.29 15.3788L101.963 16.5924Z" fill="white" stroke="black" stroke-width="0.5"/>
</svg>
