<svg width="64" height="64" viewBox="0 0 64 64" fill="none" xmlns="http://www.w3.org/2000/svg">
<path d="M32.25 8V7.75027L32.0003 7.75C26.6815 7.74432 21.5098 9.49536 17.2886 12.7311C16.3582 13.4345 15.4831 14.2083 14.671 15.0455C11.0742 18.7209 8.73891 23.4446 8.00258 28.5342L7.96123 28.82H8.25H32H32.25V28.57V8Z" fill="#142359" stroke="black" stroke-width="0.5"/>
<path d="M48.79 15.11H49.4013L48.9652 14.6816C44.4381 10.2354 38.3452 7.746 31.9998 7.75L31.75 7.75016V8V14.86V15.11H32H48.79Z" fill="#BF2121" stroke="black" stroke-width="0.5"/>
<path d="M53.68 21.96H54.0752L53.9059 21.6029C52.682 19.0211 51.0089 16.6774 48.9647 14.6811L48.8918 14.61H48.79H32H31.75V14.86V21.71V21.96H32H53.68Z" fill="white" stroke="black" stroke-width="0.5"/>
<path d="M55.75 28.82H56.0376L55.9976 28.5352C55.6598 26.1306 54.9542 23.7922 53.9055 21.602L53.8375 21.46H53.68H32H31.75V21.71V28.57V28.82H32H55.75Z" fill="#BF2121" stroke="black" stroke-width="0.5"/>
<path d="M56.25 32C56.2532 30.8396 56.1687 29.6807 55.9973 28.5331L55.9655 28.32H55.75H8.25005H8.03403L8.00269 28.5337C7.66577 30.8323 7.66577 33.1677 8.00269 35.4663L8.03403 35.68H8.25005H55.75H55.9655L55.9973 35.4669C56.1687 34.3193 56.2532 33.1603 56.25 32ZM56.25 32C56.25 32.0002 56.25 32.0004 56.25 32.0007L56 32L56.25 31.9993C56.25 31.9995 56.25 31.9998 56.25 32Z" fill="white" stroke="black" stroke-width="0.5"/>
<path d="M55.9976 35.4648L56.0376 35.18H55.75H8.25H7.96243L8.00243 35.4648C8.34019 37.8694 9.0458 40.2078 10.0945 42.398L10.1625 42.54H10.32H53.68H53.8375L53.9055 42.398C54.9542 40.2078 55.6598 37.8694 55.9976 35.4648Z" fill="#BF2121" stroke="black" stroke-width="0.5"/>
<path d="M48.965 49.3186L49.4028 48.89H48.7901H15.2101H14.5974L15.0352 49.3186C19.5673 53.7558 25.6575 56.2408 32.0001 56.2408C38.3427 56.2408 44.4329 53.7558 48.965 49.3186Z" fill="#BF2121" stroke="black" stroke-width="0.5"/>
<path d="M53.906 42.3971L54.0753 42.04H53.6801H10.3201H9.92489L10.0942 42.3971C11.3181 44.9789 12.9912 47.3226 15.0354 49.3189L15.1082 49.39H15.2101H48.7901H48.8919L48.9647 49.3189C51.0089 47.3226 52.682 44.9789 53.906 42.3971Z" fill="white" stroke="black" stroke-width="0.5"/>
<path d="M24.9476 10.7123L24.7083 9.98063L24.4721 10.7133L23.8379 12.68H21.76H20.9861L21.6138 13.1328L23.2956 14.3459L22.6524 16.3123L22.4127 17.045L23.0368 16.5924L24.7104 15.3785L26.3938 16.5928L27.0162 17.0417L26.7776 16.3123L26.1343 14.3454L27.8068 13.1324L28.4305 12.68H27.66H25.5913L24.9476 10.7123Z" fill="white" stroke="black" stroke-width="0.5"/>
<path d="M24.9476 19.3123L24.7083 18.5806L24.4721 19.3133L23.8379 21.28H21.76H20.9908L21.613 21.7322L23.2958 22.9552L22.6524 24.9223L22.4127 25.655L23.0368 25.2024L24.7104 23.9885L26.3938 25.2028L27.0162 25.6518L26.7776 24.9223L26.134 22.9548L27.8075 21.7318L28.4258 21.28H27.66H25.5913L24.9476 19.3123Z" fill="white" stroke="black" stroke-width="0.5"/>
<path d="M16.528 19.3133L16.2918 18.5806L16.0525 19.3123L15.4088 21.28H13.3401H12.5743L13.1926 21.7318L14.8661 22.9548L14.2225 24.9223L13.9839 25.6518L14.6063 25.2028L16.2897 23.9885L17.9633 25.2024L18.5874 25.655L18.3477 24.9223L17.7043 22.9552L19.3871 21.7322L20.0093 21.28H19.2401H17.1622L16.528 19.3133Z" fill="white" stroke="black" stroke-width="0.5"/>
<path d="M17.9633 16.5924L18.5874 17.045L18.3477 16.3123L17.7045 14.3459L19.3863 13.1328L20.014 12.68H19.2401H17.4401H17.3562L17.2893 12.7306C16.3585 13.4343 15.4831 14.2083 14.6706 15.0459L14.6302 15.0876L14.6123 15.1428L14.2323 16.3128L13.995 17.0434L14.6169 16.5924L16.2901 15.3788L17.9633 16.5924Z" fill="white" stroke="black" stroke-width="0.5"/>
</svg>
