<svg width="64" height="64" viewBox="0 0 64 64" fill="none" xmlns="http://www.w3.org/2000/svg">
<path d="M54.8556 40.0836C53.181 44.8064 50.0843 48.8944 45.9916 51.7856C41.8988 54.6767 37.011 56.2291 32 56.2291C26.9891 56.2291 22.1012 54.6767 18.0084 51.7856C13.9157 48.8944 10.8191 44.8064 9.1444 40.0836C7.28536 34.8548 7.28536 29.1452 9.1444 23.9165L54.8556 40.0836ZM54.8556 40.0836C55.784 37.4898 56.2558 34.7548 56.25 32M54.8556 40.0836L56.25 32M56.25 32C56.2558 29.2452 55.784 26.5102 54.8556 23.9165C53.181 19.1936 50.0843 15.1056 45.9916 12.2144C41.8988 9.32326 37.011 7.77095 32 7.77095C26.9891 7.77095 22.1012 9.32326 18.0084 12.2144C13.9158 15.1056 10.8192 19.1935 9.14447 23.9163L56.25 32Z" fill="white" stroke="black" stroke-width="0.5"/>
<path d="M54.62 40.25H54.7961L54.8554 40.0843C55.7839 37.4903 56.2558 34.7551 56.25 32C56.2558 29.2449 55.7839 26.5097 54.8554 23.9157L54.7961 23.75H54.62H9.38002H9.20358L9.14447 23.9162C7.28534 29.1451 7.28534 34.8549 9.14447 40.0838L9.20358 40.25H9.38002H54.62Z" fill="#0036A7" stroke="black" stroke-width="0.5"/>
<path d="M54.8556 40.0836L54.9739 39.75H54.62H9.38H9.0261L9.14438 40.0836C10.8191 44.8064 13.9157 48.8944 18.0084 51.7856C22.1012 54.6767 26.9891 56.2291 32 56.2291C37.0109 56.2291 41.8988 54.6767 45.9916 51.7856C50.0843 48.8944 53.1809 44.8064 54.8556 40.0836Z" fill="#D62718" stroke="black" stroke-width="0.5"/>
</svg>
